<?xml version="1.0" encoding="utf-8"?>
<!-- Generator: Adobe Illustrator 25.0.0, SVG Export Plug-In . SVG Version: 6.00 Build 0)  -->
<svg version="1.1" id="Layer_1" xmlns="http://www.w3.org/2000/svg" xmlns:xlink="http://www.w3.org/1999/xlink" x="0px" y="0px"
	 viewBox="0 0 1932 459.9" style="enable-background:new 0 0 1932 459.9;" xml:space="preserve">
<style type="text/css">
	.st0{fill:#FFFFFF;}
	.st1{fill:#0078F0;}
</style>
<g>
	<g>
		<path class="st0" d="M40.6,40.4C17.5,40.4,0,59,0,81.6s17.5,40,40.6,40s40.6-17.5,40.6-40C81.2,59,63.7,40.4,40.6,40.4z"/>
		<rect x="11.3" y="171.3" class="st0" width="58.6" height="284.1"/>
		<path class="st0" d="M264.2,166.8c-37.8,0-71.6,19.2-91.9,53v-48.5h-58.6v284.1h58.6v-115c0-78.4,36.1-121.8,72.7-121.8
			c26.5,0,44,13.5,44,51.9v184.9h58.6V251.9C347.7,196.7,313.9,166.8,264.2,166.8z"/>
		<path class="st0" d="M510.6,92.5c10.7,0,21.4,1.7,33.3,7.9l11.8-49.6c-10.7-5.6-27.6-10.1-46.8-10.1c-57.5,0-95.3,31-95.3,100.3
			v30.3H377v51.9h36.6v232.2h58.6V223.2h62.6v-51.9h-62.6V137C472.3,107.7,484.7,92.5,510.6,92.5z"/>
		<path class="st0" d="M688.7,166.8c-87.9,0-139.8,66.5-139.8,146.6c0,80,51.9,146.6,139.8,146.6s139.8-66.5,139.8-146.6
			S776.7,166.8,688.7,166.8z M688.7,408.1c-51.3,0-77.8-46.8-77.8-94.7s26.5-94.7,77.8-94.7s77.8,46.8,77.8,94.7
			S740,408.1,688.7,408.1z"/>
		<path class="st0" d="M1283.3,2c-98.8,0-192.6,7.1-277,19.9v52.6c84.4-12.7,178.2-19.9,277-19.9c99.1,0,193.1,7.2,277.6,19.9V21.9
			C1476.4,9.2,1382.4,2,1283.3,2z"/>
	</g>
	<path class="st0" d="M947.7,121.6"/>
</g>
<g>
	<path class="st1" d="M985.4,406.1c-25.9,0-37.8-14.1-37.8-46.2V221.2h73.8v-51.9h-73.8V29.9L889,42.6v126.6h-47.4v51.9H889v135.3
		c0,69.9,39.5,101.5,93,101.5c15.8,0,30.4-2.8,45.7-10.1l-15.2-49.6C1002.4,404.4,995.6,406.1,985.4,406.1z"/>
	<path class="st1" d="M1172.3,164.8c-93.6,0-132.5,78.9-132.5,146.6c0,67.6,38.9,146.6,132.5,146.6c64.8,0,97-26.5,124.6-80
		l-50.2-19.7c-14.7,31-44,47.9-74.4,47.9c-46.2,0-70.5-36.6-70.5-78.4H1303v-25.4C1303,238.7,1263,164.8,1172.3,164.8z
		 M1102.9,278.7c6.2-35.5,30.4-62,69.3-62c42.3,0,63.7,30.4,68.8,62H1102.9z"/>
	<path class="st1" d="M1465.4,216.7c33.8,0,56.9,18.6,70.5,49l52.4-22.5c-22.5-51.3-62.6-78.4-122.9-78.4
		c-90.2,0-133.6,68.8-133.6,146.6S1375.2,458,1465.4,458c60.3,0,100.3-27.1,122.9-78.4l-52.4-22.5c-13.5,30.4-36.6,49-70.5,49
		c-50.2,0-71.6-41.2-71.6-94.7C1393.8,257.8,1415.2,216.7,1465.4,216.7z"/>
	<path class="st1" d="M1774,165.8c-42.8,0-75.5,23.7-95.8,53V43.7L1619.6,31v423.4h58.6v-120c0-75.5,44.5-116.7,76.7-116.7
		c26.5,0,44.5,8.5,44.5,51.9v184.9h58.6V254.3C1858,194,1826.4,165.8,1774,165.8z"/>
</g>
<g>
	<g>
		<path class="st1" d="M1876.3,425.8c0-16.5,11.7-28.9,27.9-28.9c16.2,0,27.9,12.5,27.9,28.9c0,16.5-11.7,28.9-27.9,28.9
			C1888,454.7,1876.3,442.3,1876.3,425.8z M1927.4,425.8c0-13.6-9.3-24.3-23.3-24.3s-23.3,10.7-23.3,24.3s9.3,24.3,23.3,24.3
			S1927.4,439.4,1927.4,425.8z M1894,410h10.7c6.2,0,9.9,3.7,9.9,9c0,4.6-3.1,7.9-7.1,8.7l9.4,13.8h-4.6L1903,428h-4.5v13.5h-4.4
			L1894,410L1894,410z M1904.7,424.1c3.6,0,5.5-1.9,5.5-5c0-3.2-1.9-5-5.5-5h-6.3v10.1h6.3V424.1z"/>
	</g>
</g>
</svg>
